<?xml version="1.0" encoding="utf-8"?>
<!-- Generator: Adobe Illustrator 24.3.0, SVG Export Plug-In . SVG Version: 6.00 Build 0)  -->
<svg version="1.1" id="Layer_1" xmlns="http://www.w3.org/2000/svg" xmlns:xlink="http://www.w3.org/1999/xlink" x="0px" y="0px"
	 viewBox="0 0 1214.37 1558.09" style="enable-background:new 0 0 1214.37 1558.09;" xml:space="preserve">
<g>
	<g>
		<g>
			<g>
				<g>
					<path style="fill:#19341D;" d="M109.65,1462.45v2.55c-3.31,0.6-5.82,1.65-7.52,3.17c-2.44,2.25-4.6,5.7-6.48,10.34
						l-32.62,79.57h-2.55l-35.03-80.61c-1.79-4.14-3.06-6.67-3.79-7.58c-1.15-1.42-2.56-2.54-4.24-3.34
						c-1.68-0.8-3.94-1.32-6.79-1.55v-2.55h38.2v2.55c-4.32,0.41-7.13,1.15-8.41,2.21c-1.29,1.06-1.93,2.41-1.93,4.07
						c0,2.3,1.06,5.88,3.17,10.76l23.79,54.82l22.07-54.13c2.16-5.33,3.24-9.03,3.24-11.1c0-1.33-0.67-2.61-2-3.83
						c-1.33-1.22-3.59-2.08-6.76-2.59c-0.23-0.05-0.62-0.11-1.17-0.21v-2.55H109.65z"/>
				</g>
			</g>
			<g>
				<g>
					<path style="fill:#19341D;" d="M157.78,1524.65h-36.2l-6.34,14.76c-1.56,3.63-2.34,6.34-2.34,8.14c0,1.43,0.68,2.68,2.03,3.76
						c1.36,1.08,4.29,1.78,8.79,2.1v2.55H94.27v-2.55c3.91-0.69,6.44-1.59,7.58-2.69c2.34-2.21,4.94-6.69,7.79-13.45l32.89-76.95
						h2.41l32.55,77.78c2.62,6.25,5,10.31,7.14,12.17c2.14,1.86,5.11,2.91,8.93,3.14v2.55h-36.89v-2.55
						c3.72-0.18,6.24-0.8,7.55-1.86c1.31-1.06,1.96-2.34,1.96-3.86c0-2.02-0.92-5.22-2.76-9.58L157.78,1524.65z M155.85,1519.54
						l-15.86-37.79l-16.27,37.79H155.85z"/>
				</g>
			</g>
			<g>
				<g>
					<path style="fill:#19341D;" d="M276.1,1530.09l2.28,0.48l-8,25.38h-72.4v-2.55h3.52c3.95,0,6.78-1.29,8.48-3.86
						c0.97-1.47,1.45-4.87,1.45-10.21V1479c0-5.84-0.64-9.49-1.93-10.96c-1.79-2.02-4.46-3.03-8-3.03h-3.52v-2.55h42.34v2.55
						c-4.96-0.05-8.45,0.41-10.45,1.38c-2,0.97-3.37,2.18-4.1,3.65c-0.74,1.47-1.1,4.99-1.1,10.55v58.75c0,3.82,0.37,6.44,1.1,7.86
						c0.55,0.97,1.4,1.68,2.55,2.14c1.15,0.46,4.73,0.69,10.76,0.69h6.83c7.17,0,12.21-0.53,15.1-1.59c2.9-1.06,5.54-2.93,7.93-5.62
						C271.32,1540.13,273.71,1535.89,276.1,1530.09z"/>
				</g>
			</g>
			<g>
				<g>
					<path style="fill:#19341D;" d="M283.82,1555.95v-2.55h3.52c3.95,0,6.76-1.26,8.41-3.79c1.01-1.52,1.52-4.92,1.52-10.21V1479
						c0-5.84-0.64-9.49-1.93-10.96c-1.79-2.02-4.46-3.03-8-3.03h-3.52v-2.55h38.06c13.97,0,24.6,1.59,31.89,4.76
						s13.15,8.46,17.58,15.86c4.44,7.4,6.65,15.95,6.65,25.65c0,13.01-3.95,23.88-11.86,32.62c-8.87,9.75-22.39,14.62-40.55,14.62
						H283.82z M310.51,1549.19c5.84,1.29,10.73,1.93,14.69,1.93c10.66,0,19.51-3.75,26.55-11.24c7.03-7.49,10.55-17.65,10.55-30.48
						c0-12.92-3.52-23.1-10.55-30.55c-7.03-7.45-16.07-11.17-27.1-11.17c-4.14,0-8.85,0.67-14.14,2V1549.19z"/>
				</g>
			</g>
			<g>
				<g>
					<path style="fill:#19341D;" d="M426.97,1553.4v2.55h-40.06v-2.55h3.31c3.86,0,6.67-1.13,8.41-3.38
						c1.1-1.47,1.65-5.01,1.65-10.62V1479c0-4.73-0.3-7.86-0.9-9.38c-0.46-1.15-1.4-2.14-2.83-2.97c-2.02-1.1-4.14-1.65-6.34-1.65
						h-3.31v-2.55h40.06v2.55h-3.38c-3.82,0-6.6,1.13-8.34,3.38c-1.15,1.47-1.72,5.01-1.72,10.62v60.4c0,4.73,0.3,7.86,0.9,9.38
						c0.46,1.15,1.42,2.14,2.9,2.97c1.98,1.1,4.07,1.65,6.27,1.65H426.97z"/>
				</g>
			</g>
			<g>
				<g>
					<path style="fill:#19341D;" d="M530.68,1462.45v2.55c-3.31,0.6-5.82,1.65-7.52,3.17c-2.44,2.25-4.6,5.7-6.48,10.34
						l-32.62,79.57h-2.55l-35.03-80.61c-1.79-4.14-3.06-6.67-3.79-7.58c-1.15-1.42-2.56-2.54-4.24-3.34
						c-1.68-0.8-3.94-1.32-6.79-1.55v-2.55h38.2v2.55c-4.32,0.41-7.13,1.15-8.41,2.21c-1.29,1.06-1.93,2.41-1.93,4.07
						c0,2.3,1.06,5.88,3.17,10.76l23.79,54.82l22.07-54.13c2.16-5.33,3.24-9.03,3.24-11.1c0-1.33-0.67-2.61-2-3.83
						c-1.33-1.22-3.59-2.08-6.76-2.59c-0.23-0.05-0.62-0.11-1.17-0.21v-2.55H530.68z"/>
				</g>
			</g>
			<g>
				<g>
					<path style="fill:#19341D;" d="M575.98,1553.4v2.55h-40.06v-2.55h3.31c3.86,0,6.67-1.13,8.41-3.38
						c1.1-1.47,1.65-5.01,1.65-10.62V1479c0-4.73-0.3-7.86-0.9-9.38c-0.46-1.15-1.4-2.14-2.83-2.97c-2.02-1.1-4.14-1.65-6.34-1.65
						h-3.31v-2.55h40.06v2.55h-3.38c-3.82,0-6.6,1.13-8.34,3.38c-1.15,1.47-1.72,5.01-1.72,10.62v60.4c0,4.73,0.3,7.86,0.9,9.38
						c0.46,1.15,1.42,2.14,2.9,2.97c1.98,1.1,4.07,1.65,6.27,1.65H575.98z"/>
				</g>
			</g>
			<g>
				<g>
					<path style="fill:#19341D;" d="M644.04,1524.65h-36.2l-6.34,14.76c-1.56,3.63-2.34,6.34-2.34,8.14c0,1.43,0.68,2.68,2.03,3.76
						c1.36,1.08,4.29,1.78,8.79,2.1v2.55h-29.44v-2.55c3.91-0.69,6.44-1.59,7.58-2.69c2.34-2.21,4.94-6.69,7.79-13.45l32.89-76.95
						h2.41l32.55,77.78c2.62,6.25,5,10.31,7.14,12.17c2.14,1.86,5.11,2.91,8.93,3.14v2.55h-36.89v-2.55
						c3.72-0.18,6.24-0.8,7.55-1.86c1.31-1.06,1.96-2.34,1.96-3.86c0-2.02-0.92-5.22-2.76-9.58L644.04,1524.65z M642.11,1519.54
						l-15.86-37.79l-16.27,37.79H642.11z"/>
				</g>
			</g>
			<g>
				<g>
					<path style="fill:#19341D;" d="M714.65,1519.06h35.65v10.41h-35.65V1519.06z"/>
				</g>
			</g>
			<g>
				<g>
					<path style="fill:#19341D;" d="M876.28,1460.31l2.14,31.79h-2.14c-2.85-9.52-6.92-16.36-12.21-20.55
						c-5.29-4.18-11.63-6.27-19.03-6.27c-6.21,0-11.81,1.58-16.82,4.72c-5.01,3.15-8.95,8.17-11.83,15.07
						c-2.87,6.9-4.31,15.47-4.31,25.72c0,8.46,1.36,15.79,4.07,22c2.71,6.21,6.79,10.96,12.24,14.27
						c5.45,3.31,11.66,4.96,18.65,4.96c6.07,0,11.42-1.3,16.07-3.9c4.64-2.6,9.75-7.76,15.31-15.48l2.14,1.38
						c-4.69,8.32-10.16,14.41-16.41,18.27c-6.25,3.86-13.68,5.79-22.27,5.79c-15.49,0-27.49-5.75-35.99-17.24
						c-6.34-8.55-9.52-18.62-9.52-30.2c0-9.33,2.09-17.9,6.28-25.72c4.18-7.81,9.94-13.87,17.27-18.17
						c7.33-4.3,15.34-6.45,24.03-6.45c6.76,0,13.42,1.65,20,4.96c1.93,1.01,3.31,1.52,4.14,1.52c1.24,0,2.32-0.44,3.24-1.31
						c1.2-1.24,2.04-2.97,2.55-5.17H876.28z"/>
				</g>
			</g>
			<g>
				<g>
					<path style="fill:#19341D;" d="M914.48,1505.82h43.44v-26.75c0-4.78-0.3-7.93-0.9-9.45c-0.46-1.15-1.42-2.14-2.9-2.97
						c-1.98-1.1-4.07-1.65-6.28-1.65h-3.31v-2.55h39.99v2.55h-3.31c-2.21,0-4.3,0.53-6.27,1.59c-1.47,0.74-2.47,1.85-3,3.34
						c-0.53,1.49-0.79,4.54-0.79,9.14v60.33c0,4.73,0.3,7.86,0.9,9.38c0.46,1.15,1.4,2.14,2.83,2.97c2.02,1.1,4.14,1.65,6.34,1.65
						h3.31v2.55h-39.99v-2.55h3.31c3.82,0,6.6-1.13,8.34-3.38c1.15-1.47,1.72-5.01,1.72-10.62v-28.48h-43.44v28.48
						c0,4.73,0.3,7.86,0.9,9.38c0.46,1.15,1.42,2.14,2.9,2.97c1.98,1.1,4.07,1.65,6.27,1.65h3.38v2.55h-40.06v-2.55h3.31
						c3.86,0,6.66-1.13,8.41-3.38c1.1-1.47,1.66-5.01,1.66-10.62v-60.33c0-4.78-0.3-7.93-0.9-9.45c-0.46-1.15-1.4-2.14-2.83-2.97
						c-2.02-1.1-4.14-1.65-6.34-1.65h-3.31v-2.55h40.06v2.55h-3.38c-2.21,0-4.3,0.53-6.27,1.59c-1.43,0.74-2.41,1.85-2.96,3.34
						c-0.55,1.49-0.83,4.54-0.83,9.14V1505.82z"/>
				</g>
			</g>
			<g>
				<g>
					<path style="fill:#19341D;" d="M1031.01,1553.4v2.55h-40.06v-2.55h3.31c3.86,0,6.67-1.13,8.41-3.38
						c1.1-1.47,1.65-5.01,1.65-10.62V1479c0-4.73-0.3-7.86-0.9-9.38c-0.46-1.15-1.4-2.14-2.83-2.97c-2.02-1.1-4.14-1.65-6.34-1.65
						h-3.31v-2.55h40.06v2.55h-3.38c-3.82,0-6.6,1.13-8.34,3.38c-1.15,1.47-1.72,5.01-1.72,10.62v60.4c0,4.73,0.3,7.86,0.9,9.38
						c0.46,1.15,1.42,2.14,2.9,2.97c1.98,1.1,4.07,1.65,6.27,1.65H1031.01z"/>
				</g>
			</g>
			<g>
				<g>
					<path style="fill:#19341D;" d="M1115.41,1530.09l2.28,0.48l-8,25.38h-72.4v-2.55h3.52c3.95,0,6.78-1.29,8.48-3.86
						c0.97-1.47,1.45-4.87,1.45-10.21V1479c0-5.84-0.64-9.49-1.93-10.96c-1.79-2.02-4.46-3.03-8-3.03h-3.52v-2.55h42.34v2.55
						c-4.96-0.05-8.45,0.41-10.45,1.38c-2,0.97-3.37,2.18-4.1,3.65c-0.74,1.47-1.1,4.99-1.1,10.55v58.75c0,3.82,0.37,6.44,1.1,7.86
						c0.55,0.97,1.4,1.68,2.55,2.14c1.15,0.46,4.73,0.69,10.76,0.69h6.83c7.17,0,12.21-0.53,15.1-1.59c2.9-1.06,5.54-2.93,7.93-5.62
						C1110.63,1540.13,1113.02,1535.89,1115.41,1530.09z"/>
				</g>
			</g>
			<g>
				<g>
					<path style="fill:#19341D;" d="M1150.24,1467.55v36.96h20.55c5.33,0,8.9-0.8,10.69-2.41c2.39-2.11,3.72-5.84,4-11.17h2.55
						v32.55h-2.55c-0.64-4.55-1.29-7.47-1.93-8.76c-0.83-1.61-2.18-2.87-4.07-3.79c-1.89-0.92-4.78-1.38-8.69-1.38h-20.55v30.82
						c0,4.14,0.18,6.65,0.55,7.55c0.37,0.9,1.01,1.61,1.93,2.14c0.92,0.53,2.67,0.79,5.24,0.79h15.86c5.29,0,9.12-0.37,11.52-1.1
						c2.39-0.73,4.69-2.18,6.9-4.34c2.85-2.85,5.77-7.15,8.76-12.89h2.76l-8.07,23.44h-72.06v-2.55h3.31c2.21,0,4.3-0.53,6.27-1.59
						c1.47-0.73,2.47-1.84,3-3.31c0.53-1.47,0.79-4.48,0.79-9.03v-60.75c0-5.93-0.6-9.58-1.79-10.96c-1.66-1.84-4.41-2.76-8.27-2.76
						h-3.31v-2.55h72.06l1.03,20.48h-2.69c-0.97-4.92-2.03-8.3-3.21-10.14c-1.17-1.84-2.91-3.24-5.21-4.21
						c-1.84-0.69-5.08-1.03-9.72-1.03H1150.24z"/>
				</g>
			</g>
		</g>
		<g>
			<g>
				<path style="fill:#19341D;" d="M188.13,228.05c1.34-0.33,2.69-0.66,4.03-0.98c2.15,15.56,4.49,31.07,7.02,46.52
					c-37.03,18.28-73.21,38.94-108.32,62c-0.83-1.26-1.65-2.52-2.48-3.77c1.71-1.12,3.43-2.24,5.15-3.36
					c5.79-3.75,8.73-8.3,8.84-13.75c0.05-3.1-2.42-8.66-7.41-16.67c-18.85-30.19-37.71-60.39-56.56-90.58
					c-5.47-8.76-9.98-13.58-13.55-14.41c-4.94-1.12-10.44,0.24-16.42,4.12c-1.98,1.28-3.96,2.58-5.94,3.87
					c-0.83-1.26-1.65-2.52-2.48-3.77c23.88-15.68,48.18-30.42,72.86-44.2c0.73,1.31,1.47,2.63,2.2,3.94
					c-8.69,4.76-14.31,8.96-16.9,12.44c-2.59,3.48-3.84,6.73-3.78,9.71c0.07,2.99,2.62,8.71,7.64,17.18
					c17.69,29.81,35.38,59.61,53.07,89.42c3.45,5.81,6.37,9.46,8.77,10.98c1.7,0.98,3.62,1.31,5.77,1
					c2.15-0.31,7.74-3.13,16.88-8.27c3.45-1.94,6.92-3.85,10.39-5.75c10.94-5.97,18.25-10.79,21.87-14.76
					c3.62-3.96,6.23-8.99,7.86-15.11C188.26,247.72,188.73,239.14,188.13,228.05z"/>
			</g>
			<g>
				<path style="fill:#19341D;" d="M299.74,171.74c-20.34,7-40.51,14.63-60.49,22.89c-0.18,9.49-0.26,18.97-0.25,28.43
					c0,6.99,0.67,11.93,1.92,14.84c1,2.32,2.95,3.89,5.84,4.73c2.89,0.85,7.98,0.02,15.31-2.36c0.57,1.39,1.14,2.79,1.71,4.18
					c-15.43,6.31-30.73,13.02-45.91,20.13c-0.64-1.36-1.28-2.73-1.91-4.09c5.55-3.95,8.85-7.18,9.84-9.77
					c2.06-5.22,2.91-14.29,2.71-27.25c-0.52-49.32,1.42-99.14,5.86-149.26c1.49-0.56,2.98-1.11,4.47-1.66
					c35.97,35.66,69.76,72.74,101.29,111.05c7.61,9.24,13.55,14.95,17.97,17.08c4.42,2.13,9.77,2.5,16.09,1.16
					c0.4,1.45,0.81,2.9,1.21,4.35c-19.93,5.56-39.74,11.74-59.38,18.54c-0.49-1.42-0.98-2.84-1.48-4.27
					c5.87-2.37,9.57-4.76,11.09-7.24c1.53-2.48,1.88-4.99,1.04-7.54c-1.12-3.4-4.37-8.29-9.86-14.61
					C311.19,184.59,305.5,178.15,299.74,171.74z M293.52,164.33c-16.3-17.94-33.13-35.55-50.47-52.84
					c-1.83,24.52-3.06,48.97-3.68,73.32C257.28,177.49,275.34,170.66,293.52,164.33z"/>
			</g>
			<g>
				<path style="fill:#19341D;" d="M552.35,3.5c2.97,17.23,5.88,34.47,8.71,51.71c-1.49,0.12-2.99,0.23-4.48,0.35
					C551,42.96,544.2,33.7,536.21,27.85c-11.49-8.45-25.84-11.71-42.62-9.49c-22.89,3.04-38.99,14.24-47.63,32.71
					c-7.25,15.6-8.75,32.99-5.08,52.08c2.98,15.51,8.75,29.05,17.01,40.77c8.26,11.73,17.5,19.78,27.81,24.27
					c10.31,4.49,20.24,6.11,30.04,4.82c5.74-0.75,11.2-2.19,16.4-4.34c5.2-2.15,10.16-4.96,14.9-8.46
					c-1.57-15.87-3.14-31.74-4.7-47.61c-0.82-8.26-1.98-13.6-3.51-16.02c-1.53-2.42-3.71-4.16-6.54-5.21
					c-2.83-1.05-7.65-1.21-14.43-0.4c-0.18-1.54-0.37-3.07-0.55-4.61c21.81-2.6,43.68-4.54,65.58-5.84
					c0.09,1.54,0.18,3.09,0.27,4.63c-1.04,0.06-2.08,0.12-3.11,0.19c-6.48,0.4-10.78,2.84-12.86,7.24
					c-1.43,3.13-1.8,9.11-1.12,17.95c1.29,16.83,2.58,33.67,3.86,50.5c-8.51,5.71-16.87,10.18-25.19,13.4
					c-8.32,3.22-17.64,5.47-28.04,6.83c-29.79,3.92-53.87-2-73.78-18.94c-14.88-12.69-24.85-28.61-29.16-48.25
					c-3.12-14.22-2.61-28.64,1.93-43.22c5.37-17.33,15.12-31.74,29.25-42.9c11.83-9.26,26.94-15.29,44.99-17.72
					c6.58-0.89,12.62-1.15,18.12-0.82c5.49,0.33,13.37,1.6,23.53,3.93c5.13,1.21,8.52,1.76,10.2,1.6c1.68-0.15,3.05-0.99,4.13-2.51
					c1.07-1.52,1.57-4.36,1.48-8.52C549.05,3.77,550.7,3.63,552.35,3.5z"/>
			</g>
			<g>
				<path style="fill:#19341D;" d="M702.14,114.85c-21.22-1.07-42.46-1.51-63.7-1.31c-3.64,8.74-7.19,17.5-10.65,26.27
					c-2.56,6.48-3.76,11.31-3.69,14.48c0.06,2.52,1.26,4.71,3.58,6.58c2.32,1.87,7.26,3.01,14.81,3.53
					c0.01,1.51,0.02,3.01,0.03,4.52c-16.38,0.09-32.76,0.58-49.12,1.46c-0.08-1.5-0.16-3.01-0.24-4.51
					c6.48-1.57,10.65-3.33,12.51-5.36c3.79-4.07,7.87-12.15,12.43-24.25C635.67,90.33,655.72,44.85,678.22,0
					c1.57,0.04,3.13,0.08,4.7,0.13c19.77,46.49,37.08,93.47,51.9,140.74c3.58,11.4,6.93,18.91,10.21,22.53
					c3.28,3.62,8.06,5.95,14.38,7.05c-0.16,1.5-0.33,2.99-0.49,4.49c-20.43-2.24-40.91-3.85-61.41-4.85
					c0.07-1.5,0.15-3.01,0.22-4.51c6.25-0.02,10.53-0.86,12.84-2.6c2.31-1.73,3.57-3.93,3.74-6.61c0.23-3.57-0.96-9.32-3.65-17.22
					C707.89,131.04,705.05,122.94,702.14,114.85z M699.17,105.66c-8.32-22.71-17.23-45.33-26.72-67.83
					c-10.69,22.07-20.79,44.3-30.3,66.64C661.16,104.37,680.17,104.76,699.17,105.66z"/>
			</g>
			<g>
				<path style="fill:#19341D;" d="M918.45,205.49c-13.5-3.72-27.05-7.17-40.66-10.32c-11.42-29.13-24.23-58.1-38.44-86.82
					c-4.19-0.58-7.59-1.08-10.2-1.51c-1.06-0.18-2.2-0.39-3.42-0.63c-1.22-0.24-2.48-0.51-3.77-0.8
					c-2.55,15.83-5.1,31.65-7.65,47.48c-1.65,10.28-1.6,16.84,0.14,19.68c2.33,4.01,6.37,6.5,12.16,7.52
					c2.02,0.36,4.03,0.72,6.05,1.09c-0.27,1.48-0.54,2.96-0.82,4.44c-22-4.04-44.11-7.35-66.28-9.93c0.17-1.5,0.35-2.99,0.52-4.49
					c1.95,0.23,3.91,0.46,5.86,0.7c6.59,0.81,11.58-0.82,15.05-4.95c1.95-2.28,3.59-8.09,4.89-17.44c4.9-35.3,9.81-70.6,14.71-105.9
					c1.44-10.31,1.1-16.89-1.02-19.73c-2.94-4.01-7.84-6.47-14.65-7.3c-2.25-0.28-4.51-0.54-6.76-0.81c0.17-1.5,0.35-2.99,0.52-4.49
					c21.93,2.55,43.79,5.71,65.58,9.49c19.06,3.31,32.8,7.45,41.23,11.84c8.43,4.4,14.98,10.71,19.58,18.84
					c4.6,8.13,5.7,16.84,3.47,26.09c-2.38,9.89-7.87,17.64-16.25,23.38c-8.4,5.75-19.83,8.59-34.38,8.82
					c8.3,17.81,16.08,35.7,23.33,53.65c4.96,12.36,9.47,20.94,13.82,25.73c4.35,4.8,10.53,8.76,18.58,11.99
					C919.26,202.59,918.85,204.04,918.45,205.49z M823.18,97.81c1.56,0.25,2.92,0.49,4.06,0.72c1.15,0.23,2.09,0.41,2.83,0.53
					c15.95,2.67,28.53,1.66,38.03-3.4c9.48-5.05,15.44-12.66,17.66-23.01c2.16-10.1,0.55-19.05-5.03-26.8
					c-5.57-7.74-14.16-12.73-25.62-14.79c-5.07-0.91-12.08-1.35-20.99-1.22C830.48,52.51,826.83,75.16,823.18,97.81z"/>
			</g>
			<g>
				<path style="fill:#19341D;" d="M1110.9,97.8c-57.58,31.8-110.87,67.7-159.51,106.91c20.79,6.43,41.41,13.54,61.85,21.33
					c9.4,3.59,17.41,4.35,24.17,2.18c6.75-2.17,14.76-8.83,24.17-19.96c1.14,0.75,2.29,1.5,3.43,2.26
					c-8.15,12.4-16.2,24.85-24.15,37.35c-39.77-16.69-80.37-30.73-121.52-42.13c0.4-1.45,0.8-2.9,1.21-4.35
					c46.02-39.51,96.53-76.04,151.2-108.85c-18.18-7.06-36.5-13.64-54.94-19.76c-9.18-3.04-16.15-4.23-20.85-3.69
					c-4.7,0.54-8.66,2.23-11.86,5.04c-3.21,2.81-7.12,8.71-11.69,17.71c-1.58-0.47-3.17-0.94-4.75-1.4
					c5.03-12.9,10.11-25.78,15.23-38.65C1026.21,64.58,1068.95,79.92,1110.9,97.8z"/>
			</g>
			<g>
				<path style="fill:#19341D;" d="M1180.28,255.06c-19.04-10.91-38.34-21.19-57.86-30.85c-7.28,6.11-14.48,12.29-21.6,18.52
					c-5.26,4.6-8.54,8.36-9.91,11.22c-1.08,2.28-0.98,4.78,0.3,7.52c1.28,2.74,5.28,6.03,11.95,10c-0.67,1.35-1.34,2.69-2.01,4.04
					c-15.03-7.5-30.21-14.61-45.52-21.31c0.6-1.38,1.21-2.76,1.81-4.14c6.61,1.57,11.21,1.91,13.82,0.95
					c5.29-1.89,12.66-7.23,22.29-15.92c36.78-32.89,75.67-64.19,116.56-93.73c1.42,0.77,2.84,1.53,4.26,2.31
					c-2.82,50.72-8.08,100.79-15.72,150.02c-1.84,11.88-2.13,20.17-0.73,24.96c1.4,4.79,4.77,9.15,10.12,13.15
					c-0.83,1.26-1.65,2.52-2.48,3.77c-17.89-11.75-36.05-22.88-54.47-33.39c0.75-1.31,1.49-2.62,2.24-3.92
					c5.76,2.92,10.08,4.18,13,3.72c2.91-0.46,5.06-1.83,6.43-4.14c1.82-3.08,3.32-8.77,4.41-17.09
					C1178.27,272.21,1179.31,263.65,1180.28,255.06z M1181.69,245.46c2.59-24.17,4.61-48.52,6.06-73.02
					c-19.78,14.72-39.06,29.86-57.84,45.4C1147.35,226.55,1164.62,235.76,1181.69,245.46z"/>
			</g>
		</g>
	</g>
	<g>
		<g>
			<g>
				<g>
					<path style="fill:#19341D;" d="M669.73,655.75c-6.42-3.84-13.05-7.81-19.42-11.9c-11.26-7.22-40.19-30.56-38.93-51.57
						c0.35-5.91,3.32-14.2,15.5-20.1c14.7-7.12,33.14-6.41,49.71-4.63c-7.05-5.26-13.76-10.25-13.98-10.28l14.96,4.23h0.01
						l231.86,65.48c-2.19-1.18-162.01-82.6-225.92-104.05c0.39,0.35,0.76,0.71,1.12,1.07c-4.53-1.72-8.11-3.13-8.25-3.33
						c2.22,0.65,4.6,1.41,7.13,2.26c-3.21-3-7.11-6.21-11.75-9.26c-20.93-13.77-46.07-18.12-74.71-12.92
						c-23.36,4.23-39.43,19.29-45.26,42.39c-9.84,39.03,10.13,89,47.48,118.8c24.15,19.27,42.89,38.7,54.18,56.2
						c9.28,14.39,13.11,26.9,10.51,34.33c-1.41,4.02-4.64,6.42-8.64,6.42c-1.2,0-2.66-0.29-5.56-0.86
						c-45.6-9-90.81-2.05-134.36,20.66c-82.89,43.21-153.68,138.94-210.47,284.6c16.98-3.57,56.22-15.35,82.24-50.74
						c0.71-0.96,1.72-1.63,2.87-1.9c0.41-0.1,8.03-1.95,20.4-5.42c5.87-1.64,12.82-3.66,20.58-6.02
						c12.45-3.79,26.99-8.49,42.53-14.04c7.05-2.51,14.3-5.2,21.66-8.06c12.65-4.92,25.61-10.34,38.36-16.23
						c6.97-3.21,13.87-6.58,20.63-10.08c42.96-22.22,79.93-49.94,89.18-82.01c6.51-22.56-1.82-45.89-24.78-69.35
						c-1.93-1.97-1.9-5.14,0.08-7.07c1.97-1.93,5.13-1.9,7.07,0.08c25.66,26.22,34.82,52.84,27.24,79.12
						c-11.24,38.95-58.73,75.87-141.16,109.73c-11.59,4.76-23.09,9.12-34.11,13.07c-0.07,0.03-0.15,0.05-0.22,0.08
						c-24.62,8.8-46.87,15.51-62.44,19.9c-2.5,0.7-4.81,1.34-6.95,1.93c0.99,0.26,2.02,0.53,3.1,0.79
						c6.64,1.62,14.9,3.22,24.43,4.25c23.57,2.54,59.95,1.96,99.97-15.05c0.4-0.17,0.8-0.34,1.2-0.51l0.22,0.01l10.53,0.71
						l-1.9,52.28c0,0,14.26-8.56,35.17-40.38c13.96-21.24,45.78-37.14,65.39-45.38c0.01,0,0.02-0.01,0.03-0.01h0.01
						c56.79-40.19,99.99-102.15,109.54-160.37c6.19-37.73-2.85-77.91-24.19-107.49C715.96,683.41,692.45,669.35,669.73,655.75z
						 M696.04,528.25c0.48,0.12,0.97,0.23,1.46,0.36c0.44,0.1,0.88,0.22,1.34,0.34c1.28,0.34,2.62,0.71,4.01,1.12
						c0.37,0.56,0.57,0.9,0.62,0.98c-0.02-0.03-3.32-1.25-7.62-2.84C695.91,528.22,695.97,528.24,696.04,528.25z"/>
					<path style="fill:#19341D;" d="M703.47,531.05c-0.02-0.03-3.32-1.25-7.62-2.84c0.06,0.01,0.12,0.03,0.19,0.04
						c0.48,0.12,0.97,0.23,1.46,0.36c0.44,0.11,0.89,0.22,1.34,0.34c1.28,0.34,2.62,0.71,4.01,1.12
						C703.22,530.63,703.42,530.97,703.47,531.05z"/>
				</g>
				<g>
					<path style="fill:#19341D;" d="M537.04,1005.77l-0.22-0.01c-0.4,0.17-0.8,0.34-1.2,0.51c-40.02,17.01-76.4,17.59-99.97,15.05
						c-9.53-1.03-17.79-2.63-24.43-4.25c-1.08-0.26-2.11-0.53-3.1-0.79h-0.01c-3.23,0.88-6.02,1.62-8.32,2.22
						c-2.48,0.65-4.38,1.13-5.64,1.44c-0.3,0.4-0.6,0.79-0.91,1.18h0.01c6.52,2.37,21.02,6.91,41.06,9.11
						c6.54,0.72,14.03,1.21,22.28,1.21c21.77,0,48.87-3.41,77.99-15.01c1.99-0.79,3.99-1.62,6-2.49L537.04,1005.77z"/>
				</g>
				<g>
					<path style="fill:#19341D;" d="M628.96,1337.01c0,0-0.04-0.41-0.12-1.2c-1.86-17.71-23.44-226.08-16.16-266.12
						c5.48-30.12,29.03-70.28,41.77-90.38h-0.01c-11.58,8.43-23.57,15.87-35.68,22.11c-0.73,0.38-1.52,0.56-2.29,0.56
						c-1.81,0-3.56-0.99-4.45-2.72c-1.26-2.45-0.3-5.46,2.16-6.73c11.05-5.7,21.78-12.25,32.05-19.53
						c-19.61,8.24-51.43,24.14-65.39,45.38c-20.91,31.82-35.17,40.38-35.17,40.38l1.9-52.28l-10.53-0.71l-0.22-0.01
						c-0.4,0.17-0.8,0.34-1.2,0.51c-0.15,1.5-0.51,5.19-1.04,10.16c-1.74,16.39-5.31,46.71-8.87,58.25
						c-4.99,16.16,9.98,70.22,9.98,70.22L573,1336.02l2.14,10.97c0,0-33.86,17.11-93.39,18.9v4.63c0,0,84.12,4.28,103.37-7.84
						c0,0,11.76,8.2,23.52,11.4c0.33,0.09,0.64,0.16,0.96,0.21c6.05,1.01,10.4-4.49,13.12-9.72c2.27-4.37,3.39-8.55,3.39-8.55
						l122.97,2.14C749.08,1358.16,703.81,1332.38,628.96,1337.01z M601.41,1342.35c-4.9,1.08-9.75-1.86-11.06-6.63
						c-0.06-0.16-0.1-0.33-0.14-0.5c-7.64-34.56-34.36-157.27-38.83-202.8c-5.23-53.23,40.87-105.46,40.87-105.46
						s5.7,31.8-3.8,60.31c-9.51,28.52,5.22,51.33,5.22,51.33l15.06,193.86c0.02,0.24,0.03,0.49,0.03,0.73
						c0,0.84-0.11,1.67-0.33,2.45C607.54,1338.92,604.89,1341.57,601.41,1342.35z"/>
				</g>
				<g>
					<path style="fill:#19341D;" d="M702.85,530.07c-1.39-0.41-2.73-0.78-4.01-1.12c-0.45-0.12-0.9-0.23-1.34-0.34
						c-0.49-0.13-0.98-0.24-1.46-0.36c-0.07-0.01-0.13-0.03-0.19-0.04c4.3,1.59,7.6,2.81,7.62,2.84
						C703.42,530.97,703.22,530.63,702.85,530.07z"/>
					<path style="fill:#19341D;" d="M681.55,568.11c-1.63-0.19-3.29-0.38-4.96-0.56c-7.05-5.26-13.76-10.25-13.98-10.28l14.96,4.23
						h0.01L681.55,568.11z"/>
					<path style="fill:#19341D;" d="M684.64,524c-4.53-1.72-8.11-3.13-8.25-3.33c2.22,0.65,4.6,1.41,7.13,2.26
						C683.91,523.28,684.28,523.64,684.64,524z"/>
					<path style="fill:#19341D;" d="M681.55,568.11c-1.63-0.19-3.29-0.38-4.96-0.56c-7.05-5.26-13.76-10.25-13.98-10.28l14.96,4.23
						L681.55,568.11z"/>
					<path style="fill:#19341D;" d="M684.64,524c-4.53-1.72-8.11-3.13-8.25-3.33c2.22,0.65,4.6,1.41,7.13,2.26
						C683.91,523.28,684.28,523.64,684.64,524z"/>
					<path style="fill:#19341D;" d="M703.47,531.05c-0.02-0.03-3.32-1.25-7.62-2.84c0.06,0.01,0.12,0.03,0.19,0.04
						c0.48,0.12,0.97,0.23,1.46,0.36c0.44,0.11,0.89,0.22,1.34,0.34c1.28,0.34,2.62,0.71,4.01,1.12
						C703.22,530.63,703.42,530.97,703.47,531.05z"/>
				</g>
			</g>
			<g>
				<path style="fill:#19341D;" d="M704.17,441.91c-17.81,23.42-28.84,47.58-32.88,57.23c-14.62-6.28-33.38-10.91-56.46-10.13h-0.01
					c-6.73,0.23-13.81,0.92-21.28,2.17c-0.83,0.13-1.66,0.28-2.48,0.43c-3.34,0.61-6.58,1.37-9.68,2.28
					c-6.82,2-13.1,4.72-18.83,8.14c-2.6-6.54-14.04-33.79-34.04-60.12c-33.82-44.48-15.85-88.1,23.93-108.64
					c39.78-20.53-14.39-65.87-14.39-65.87h156.58c0,0-54.16,45.34-14.39,65.87C720.01,353.8,737.97,397.42,704.17,441.91z"/>
			</g>
			<g>
				<path style="fill:#19341D;" d="M622.71,1364.57c-2.72,5.23-7.07,10.73-13.12,9.72c-1.94-0.69-3.34-2.54-3.34-4.72
					c0-2.76,2.24-5,5-5H622.71z"/>
			</g>
		</g>
		<ellipse style="fill:#19341D;" cx="606.13" cy="1356.4" rx="172.51" ry="20.77"/>
	</g>
</g>
<g>
</g>
<g>
</g>
<g>
</g>
<g>
</g>
<g>
</g>
<g>
</g>
<g>
</g>
<g>
</g>
<g>
</g>
<g>
</g>
<g>
</g>
<g>
</g>
<g>
</g>
<g>
</g>
<g>
</g>
</svg>
